<?xml version="1.0" encoding="UTF-8" standalone="no"?>
<!DOCTYPE svg PUBLIC "-//W3C//DTD SVG 1.1//EN"
 "http://www.w3.org/Graphics/SVG/1.1/DTD/svg11.dtd">
<!-- Generated by graphviz version 2.43.0 (0)
 -->
<!-- Title: snakemake_dag Pages: 1 -->
<svg width="1010pt" height="332pt"
 viewBox="0.00 0.00 1009.50 332.00" xmlns="http://www.w3.org/2000/svg" xmlns:xlink="http://www.w3.org/1999/xlink">
<g id="graph0" class="graph" transform="scale(1 1) rotate(0) translate(4 328)">
<title>snakemake_dag</title>
<polygon fill="white" stroke="transparent" points="-4,4 -4,-328 1005.5,-328 1005.5,4 -4,4"/>
<!-- 0 -->
<g id="node1" class="node">
<title>0</title>
<path fill="none" stroke="#78d856" stroke-width="2" d="M653,-36C653,-36 623,-36 623,-36 617,-36 611,-30 611,-24 611,-24 611,-12 611,-12 611,-6 617,0 623,0 623,0 653,0 653,0 659,0 665,-6 665,-12 665,-12 665,-24 665,-24 665,-30 659,-36 653,-36"/>
<text text-anchor="middle" x="638" y="-15.5" font-family="sans" font-size="10.00">all</text>
</g>
<!-- 1 -->
<g id="node2" class="node">
<title>1</title>
<path fill="none" stroke="#c6d856" stroke-width="2" d="M240,-108C240,-108 12,-108 12,-108 6,-108 0,-102 0,-96 0,-96 0,-84 0,-84 0,-78 6,-72 12,-72 12,-72 240,-72 240,-72 246,-72 252,-78 252,-84 252,-84 252,-96 252,-96 252,-102 246,-108 240,-108"/>
<text text-anchor="middle" x="126" y="-93" font-family="sans" font-size="10.00">fastqc</text>
<text text-anchor="middle" x="126" y="-82" font-family="sans" font-size="10.00">sample: ../data/fastq_files/SRR35855706_1.fastq</text>
</g>
<!-- 1&#45;&gt;0 -->
<g id="edge1" class="edge">
<title>1&#45;&gt;0</title>
<path fill="none" stroke="grey" stroke-width="2" d="M250.59,-71.97C365.14,-56.31 527.84,-34.06 600.47,-24.13"/>
<polygon fill="grey" stroke="grey" stroke-width="2" points="601.08,-27.58 610.51,-22.76 600.13,-20.64 601.08,-27.58"/>
</g>
<!-- 2 -->
<g id="node3" class="node">
<title>2</title>
<path fill="none" stroke="#c6d856" stroke-width="2" d="M510,-108C510,-108 282,-108 282,-108 276,-108 270,-102 270,-96 270,-96 270,-84 270,-84 270,-78 276,-72 282,-72 282,-72 510,-72 510,-72 516,-72 522,-78 522,-84 522,-84 522,-96 522,-96 522,-102 516,-108 510,-108"/>
<text text-anchor="middle" x="396" y="-93" font-family="sans" font-size="10.00">fastqc</text>
<text text-anchor="middle" x="396" y="-82" font-family="sans" font-size="10.00">sample: ../data/fastq_files/SRR35855706_2.fastq</text>
</g>
<!-- 2&#45;&gt;0 -->
<g id="edge2" class="edge">
<title>2&#45;&gt;0</title>
<path fill="none" stroke="grey" stroke-width="2" d="M454.89,-71.97C500.48,-58.78 562.22,-40.92 601.08,-29.68"/>
<polygon fill="grey" stroke="grey" stroke-width="2" points="602.28,-32.97 610.92,-26.83 600.34,-26.25 602.28,-32.97"/>
</g>
<!-- 3 -->
<g id="node4" class="node">
<title>3</title>
<path fill="none" stroke="#56a2d8" stroke-width="2" d="M676,-324C676,-324 448,-324 448,-324 442,-324 436,-318 436,-312 436,-312 436,-300 436,-300 436,-294 442,-288 448,-288 448,-288 676,-288 676,-288 682,-288 688,-294 688,-300 688,-300 688,-312 688,-312 688,-318 682,-324 676,-324"/>
<text text-anchor="middle" x="562" y="-309" font-family="sans" font-size="10.00">bwa_map</text>
<text text-anchor="middle" x="562" y="-298" font-family="sans" font-size="10.00">sample: ../data/fastq_files/SRR35855706_1.fastq</text>
</g>
<!-- 3&#45;&gt;0 -->
<g id="edge3" class="edge">
<title>3&#45;&gt;0</title>
<path fill="none" stroke="grey" stroke-width="2" d="M560.67,-287.79C558.83,-258.03 556.97,-195.2 569,-144 577.79,-106.61 601.22,-68.68 618.35,-44.57"/>
<polygon fill="grey" stroke="grey" stroke-width="2" points="621.28,-46.48 624.33,-36.34 615.62,-42.36 621.28,-46.48"/>
</g>
<!-- 6 -->
<g id="node7" class="node">
<title>6</title>
<path fill="none" stroke="#56d87b" stroke-width="2" d="M656,-252C656,-252 594,-252 594,-252 588,-252 582,-246 582,-240 582,-240 582,-228 582,-228 582,-222 588,-216 594,-216 594,-216 656,-216 656,-216 662,-216 668,-222 668,-228 668,-228 668,-240 668,-240 668,-246 662,-252 656,-252"/>
<text text-anchor="middle" x="625" y="-231.5" font-family="sans" font-size="10.00">samtools_sort</text>
</g>
<!-- 3&#45;&gt;6 -->
<g id="edge10" class="edge">
<title>3&#45;&gt;6</title>
<path fill="none" stroke="grey" stroke-width="2" d="M577.57,-287.7C585.2,-279.22 594.52,-268.86 602.88,-259.58"/>
<polygon fill="grey" stroke="grey" stroke-width="2" points="605.52,-261.88 609.61,-252.1 600.31,-257.2 605.52,-261.88"/>
</g>
<!-- 4 -->
<g id="node5" class="node">
<title>4</title>
<path fill="none" stroke="#56a2d8" stroke-width="2" d="M968,-324C968,-324 740,-324 740,-324 734,-324 728,-318 728,-312 728,-312 728,-300 728,-300 728,-294 734,-288 740,-288 740,-288 968,-288 968,-288 974,-288 980,-294 980,-300 980,-300 980,-312 980,-312 980,-318 974,-324 968,-324"/>
<text text-anchor="middle" x="854" y="-309" font-family="sans" font-size="10.00">bwa_map</text>
<text text-anchor="middle" x="854" y="-298" font-family="sans" font-size="10.00">sample: ../data/fastq_files/SRR35855706_2.fastq</text>
</g>
<!-- 4&#45;&gt;0 -->
<g id="edge4" class="edge">
<title>4&#45;&gt;0</title>
<path fill="none" stroke="grey" stroke-width="2" d="M837.48,-287.65C829.01,-277.87 819.19,-265.03 813,-252 777.73,-177.81 824.57,-134.28 771,-72 746.78,-43.85 705.54,-30.51 675.39,-24.27"/>
<polygon fill="grey" stroke="grey" stroke-width="2" points="675.71,-20.77 665.23,-22.35 674.41,-27.65 675.71,-20.77"/>
</g>
<!-- 8 -->
<g id="node9" class="node">
<title>8</title>
<path fill="none" stroke="#56d87b" stroke-width="2" d="M896,-252C896,-252 834,-252 834,-252 828,-252 822,-246 822,-240 822,-240 822,-228 822,-228 822,-222 828,-216 834,-216 834,-216 896,-216 896,-216 902,-216 908,-222 908,-228 908,-228 908,-240 908,-240 908,-246 902,-252 896,-252"/>
<text text-anchor="middle" x="865" y="-231.5" font-family="sans" font-size="10.00">samtools_sort</text>
</g>
<!-- 4&#45;&gt;8 -->
<g id="edge12" class="edge">
<title>4&#45;&gt;8</title>
<path fill="none" stroke="grey" stroke-width="2" d="M856.72,-287.7C857.93,-279.98 859.39,-270.71 860.74,-262.11"/>
<polygon fill="grey" stroke="grey" stroke-width="2" points="864.22,-262.53 862.31,-252.1 857.3,-261.44 864.22,-262.53"/>
</g>
<!-- 5 -->
<g id="node6" class="node">
<title>5</title>
<path fill="none" stroke="#d85656" stroke-width="2" d="M660,-180C660,-180 590,-180 590,-180 584,-180 578,-174 578,-168 578,-168 578,-156 578,-156 578,-150 584,-144 590,-144 590,-144 660,-144 660,-144 666,-144 672,-150 672,-156 672,-156 672,-168 672,-168 672,-174 666,-180 660,-180"/>
<text text-anchor="middle" x="625" y="-159.5" font-family="sans" font-size="10.00">samtools_index</text>
</g>
<!-- 5&#45;&gt;0 -->
<g id="edge5" class="edge">
<title>5&#45;&gt;0</title>
<path fill="none" stroke="grey" stroke-width="2" d="M617.18,-143.78C610.04,-125.74 601.51,-96.64 608,-72 610.49,-62.54 615.1,-52.99 619.97,-44.66"/>
<polygon fill="grey" stroke="grey" stroke-width="2" points="622.95,-46.49 625.27,-36.15 617.01,-42.79 622.95,-46.49"/>
</g>
<!-- 9 -->
<g id="node10" class="node">
<title>9</title>
<path fill="none" stroke="#d8a456" stroke-width="2" d="M749.5,-108C749.5,-108 628.5,-108 628.5,-108 622.5,-108 616.5,-102 616.5,-96 616.5,-96 616.5,-84 616.5,-84 616.5,-78 622.5,-72 628.5,-72 628.5,-72 749.5,-72 749.5,-72 755.5,-72 761.5,-78 761.5,-84 761.5,-84 761.5,-96 761.5,-96 761.5,-102 755.5,-108 749.5,-108"/>
<text text-anchor="middle" x="689" y="-87.5" font-family="sans" font-size="10.00">gatk_mutect2_tumor_only</text>
</g>
<!-- 5&#45;&gt;9 -->
<g id="edge14" class="edge">
<title>5&#45;&gt;9</title>
<path fill="none" stroke="grey" stroke-width="2" d="M640.82,-143.7C648.57,-135.22 658.04,-124.86 666.52,-115.58"/>
<polygon fill="grey" stroke="grey" stroke-width="2" points="669.2,-117.85 673.36,-108.1 664.03,-113.12 669.2,-117.85"/>
</g>
<!-- 6&#45;&gt;5 -->
<g id="edge9" class="edge">
<title>6&#45;&gt;5</title>
<path fill="none" stroke="grey" stroke-width="2" d="M625,-215.7C625,-207.98 625,-198.71 625,-190.11"/>
<polygon fill="grey" stroke="grey" stroke-width="2" points="628.5,-190.1 625,-180.1 621.5,-190.1 628.5,-190.1"/>
</g>
<!-- 6&#45;&gt;9 -->
<g id="edge13" class="edge">
<title>6&#45;&gt;9</title>
<path fill="none" stroke="grey" stroke-width="2" d="M650.27,-215.79C661.68,-206.59 674.11,-194.21 681,-180 690.33,-160.74 691.93,-136.4 691.42,-118.04"/>
<polygon fill="grey" stroke="grey" stroke-width="2" points="694.91,-117.82 690.92,-108.01 687.92,-118.17 694.91,-117.82"/>
</g>
<!-- 7 -->
<g id="node8" class="node">
<title>7</title>
<path fill="none" stroke="#d85656" stroke-width="2" d="M900,-180C900,-180 830,-180 830,-180 824,-180 818,-174 818,-168 818,-168 818,-156 818,-156 818,-150 824,-144 830,-144 830,-144 900,-144 900,-144 906,-144 912,-150 912,-156 912,-156 912,-168 912,-168 912,-174 906,-180 900,-180"/>
<text text-anchor="middle" x="865" y="-159.5" font-family="sans" font-size="10.00">samtools_index</text>
</g>
<!-- 7&#45;&gt;0 -->
<g id="edge6" class="edge">
<title>7&#45;&gt;0</title>
<path fill="none" stroke="grey" stroke-width="2" d="M857.45,-143.7C847.85,-123.63 829.4,-90.89 804,-72 765.56,-43.41 711.15,-29.91 675.24,-23.77"/>
<polygon fill="grey" stroke="grey" stroke-width="2" points="675.61,-20.28 665.18,-22.16 674.5,-27.2 675.61,-20.28"/>
</g>
<!-- 10 -->
<g id="node11" class="node">
<title>10</title>
<path fill="none" stroke="#d8a456" stroke-width="2" d="M989.5,-108C989.5,-108 868.5,-108 868.5,-108 862.5,-108 856.5,-102 856.5,-96 856.5,-96 856.5,-84 856.5,-84 856.5,-78 862.5,-72 868.5,-72 868.5,-72 989.5,-72 989.5,-72 995.5,-72 1001.5,-78 1001.5,-84 1001.5,-84 1001.5,-96 1001.5,-96 1001.5,-102 995.5,-108 989.5,-108"/>
<text text-anchor="middle" x="929" y="-87.5" font-family="sans" font-size="10.00">gatk_mutect2_tumor_only</text>
</g>
<!-- 7&#45;&gt;10 -->
<g id="edge16" class="edge">
<title>7&#45;&gt;10</title>
<path fill="none" stroke="grey" stroke-width="2" d="M880.82,-143.7C888.57,-135.22 898.04,-124.86 906.52,-115.58"/>
<polygon fill="grey" stroke="grey" stroke-width="2" points="909.2,-117.85 913.36,-108.1 904.03,-113.12 909.2,-117.85"/>
</g>
<!-- 8&#45;&gt;7 -->
<g id="edge11" class="edge">
<title>8&#45;&gt;7</title>
<path fill="none" stroke="grey" stroke-width="2" d="M865,-215.7C865,-207.98 865,-198.71 865,-190.11"/>
<polygon fill="grey" stroke="grey" stroke-width="2" points="868.5,-190.1 865,-180.1 861.5,-190.1 868.5,-190.1"/>
</g>
<!-- 8&#45;&gt;10 -->
<g id="edge15" class="edge">
<title>8&#45;&gt;10</title>
<path fill="none" stroke="grey" stroke-width="2" d="M890.27,-215.79C901.68,-206.59 914.11,-194.21 921,-180 930.33,-160.74 931.93,-136.4 931.42,-118.04"/>
<polygon fill="grey" stroke="grey" stroke-width="2" points="934.91,-117.82 930.92,-108.01 927.92,-118.17 934.91,-117.82"/>
</g>
<!-- 9&#45;&gt;0 -->
<g id="edge7" class="edge">
<title>9&#45;&gt;0</title>
<path fill="none" stroke="grey" stroke-width="2" d="M676.39,-71.7C670.4,-63.47 663.12,-53.48 656.52,-44.42"/>
<polygon fill="grey" stroke="grey" stroke-width="2" points="659.18,-42.13 650.46,-36.1 653.52,-46.25 659.18,-42.13"/>
</g>
<!-- 10&#45;&gt;0 -->
<g id="edge8" class="edge">
<title>10&#45;&gt;0</title>
<path fill="none" stroke="grey" stroke-width="2" d="M858.19,-71.97C800.31,-58.04 720.82,-38.92 674.88,-27.87"/>
<polygon fill="grey" stroke="grey" stroke-width="2" points="675.59,-24.44 665.05,-25.51 673.96,-31.25 675.59,-24.44"/>
</g>
</g>
</svg>
