<?xml version="1.0" encoding="UTF-8" standalone="no"?>
<!DOCTYPE svg PUBLIC "-//W3C//DTD SVG 1.1//EN"
 "http://www.w3.org/Graphics/SVG/1.1/DTD/svg11.dtd">
<!-- Generated by graphviz version 2.43.0 (0)
 -->
<!-- Title: snakemake_dag Pages: 1 -->
<svg width="156pt" height="260pt"
 viewBox="0.00 0.00 156.00 260.00" xmlns="http://www.w3.org/2000/svg" xmlns:xlink="http://www.w3.org/1999/xlink">
<g id="graph0" class="graph" transform="scale(1 1) rotate(0) translate(4 256)">
<title>snakemake_dag</title>
<polygon fill="white" stroke="transparent" points="-4,4 -4,-256 152,-256 152,4 -4,4"/>
<!-- 0 -->
<g id="node1" class="node">
<title>0</title>
<path fill="none" stroke="#59d856" stroke-width="2" stroke-dasharray="5,2" d="M89.5,-36C89.5,-36 36.5,-36 36.5,-36 30.5,-36 24.5,-30 24.5,-24 24.5,-24 24.5,-12 24.5,-12 24.5,-6 30.5,0 36.5,0 36.5,0 89.5,0 89.5,0 95.5,0 101.5,-6 101.5,-12 101.5,-12 101.5,-24 101.5,-24 101.5,-30 95.5,-36 89.5,-36"/>
<text text-anchor="middle" x="63" y="-15.5" font-family="sans" font-size="10.00">bcftools_call</text>
</g>
<!-- 1 -->
<g id="node2" class="node">
<title>1</title>
<path fill="none" stroke="#56d8d8" stroke-width="2" stroke-dasharray="5,2" d="M94,-180C94,-180 32,-180 32,-180 26,-180 20,-174 20,-168 20,-168 20,-156 20,-156 20,-150 26,-144 32,-144 32,-144 94,-144 94,-144 100,-144 106,-150 106,-156 106,-156 106,-168 106,-168 106,-174 100,-180 94,-180"/>
<text text-anchor="middle" x="63" y="-159.5" font-family="sans" font-size="10.00">samtools_sort</text>
</g>
<!-- 1&#45;&gt;0 -->
<g id="edge1" class="edge">
<title>1&#45;&gt;0</title>
<path fill="none" stroke="grey" stroke-width="2" d="M55.52,-143.7C51.53,-133.52 47.03,-120.27 45,-108 42.39,-92.21 42.39,-87.79 45,-72 46.44,-63.28 49.13,-54.06 52,-45.8"/>
<polygon fill="grey" stroke="grey" stroke-width="2" points="55.33,-46.89 55.52,-36.3 48.77,-44.46 55.33,-46.89"/>
</g>
<!-- 3 -->
<g id="node4" class="node">
<title>3</title>
<path fill="none" stroke="#d6d856" stroke-width="2" stroke-dasharray="5,2" d="M136,-108C136,-108 66,-108 66,-108 60,-108 54,-102 54,-96 54,-96 54,-84 54,-84 54,-78 60,-72 66,-72 66,-72 136,-72 136,-72 142,-72 148,-78 148,-84 148,-84 148,-96 148,-96 148,-102 142,-108 136,-108"/>
<text text-anchor="middle" x="101" y="-87.5" font-family="sans" font-size="10.00">samtools_index</text>
</g>
<!-- 1&#45;&gt;3 -->
<g id="edge4" class="edge">
<title>1&#45;&gt;3</title>
<path fill="none" stroke="grey" stroke-width="2" d="M72.39,-143.7C76.76,-135.64 82.06,-125.89 86.9,-116.98"/>
<polygon fill="grey" stroke="grey" stroke-width="2" points="90.02,-118.56 91.71,-108.1 83.87,-115.22 90.02,-118.56"/>
</g>
<!-- 2 -->
<g id="node3" class="node">
<title>2</title>
<path fill="none" stroke="#d85656" stroke-width="2" stroke-dasharray="5,2" d="M114,-252C114,-252 12,-252 12,-252 6,-252 0,-246 0,-240 0,-240 0,-228 0,-228 0,-222 6,-216 12,-216 12,-216 114,-216 114,-216 120,-216 126,-222 126,-228 126,-228 126,-240 126,-240 126,-246 120,-252 114,-252"/>
<text text-anchor="middle" x="63" y="-237" font-family="sans" font-size="10.00">bwa_map</text>
<text text-anchor="middle" x="63" y="-226" font-family="sans" font-size="10.00">sample: SRR35855706</text>
</g>
<!-- 2&#45;&gt;1 -->
<g id="edge3" class="edge">
<title>2&#45;&gt;1</title>
<path fill="none" stroke="grey" stroke-width="2" d="M63,-215.7C63,-207.98 63,-198.71 63,-190.11"/>
<polygon fill="grey" stroke="grey" stroke-width="2" points="66.5,-190.1 63,-180.1 59.5,-190.1 66.5,-190.1"/>
</g>
<!-- 3&#45;&gt;0 -->
<g id="edge2" class="edge">
<title>3&#45;&gt;0</title>
<path fill="none" stroke="grey" stroke-width="2" d="M91.61,-71.7C87.24,-63.64 81.94,-53.89 77.1,-44.98"/>
<polygon fill="grey" stroke="grey" stroke-width="2" points="80.13,-43.22 72.29,-36.1 73.98,-46.56 80.13,-43.22"/>
</g>
</g>
</svg>
