<?xml version="1.0" encoding="UTF-8" standalone="no"?>
<!DOCTYPE svg PUBLIC "-//W3C//DTD SVG 1.1//EN"
 "http://www.w3.org/Graphics/SVG/1.1/DTD/svg11.dtd">
<!-- Generated by graphviz version 2.43.0 (0)
 -->
<!-- Title: snakemake_dag Pages: 1 -->
<svg width="166pt" height="260pt"
 viewBox="0.00 0.00 165.50 260.00" xmlns="http://www.w3.org/2000/svg" xmlns:xlink="http://www.w3.org/1999/xlink">
<g id="graph0" class="graph" transform="scale(1 1) rotate(0) translate(4 256)">
<title>snakemake_dag</title>
<polygon fill="white" stroke="transparent" points="-4,4 -4,-256 161.5,-256 161.5,4 -4,4"/>
<!-- 0 -->
<g id="node1" class="node">
<title>0</title>
<path fill="none" stroke="#56d8a9" stroke-width="2" d="M133,-36C133,-36 12,-36 12,-36 6,-36 0,-30 0,-24 0,-24 0,-12 0,-12 0,-6 6,0 12,0 12,0 133,0 133,0 139,0 145,-6 145,-12 145,-12 145,-24 145,-24 145,-30 139,-36 133,-36"/>
<text text-anchor="middle" x="72.5" y="-15.5" font-family="sans" font-size="10.00">gatk_mutect2_tumor_only</text>
</g>
<!-- 1 -->
<g id="node2" class="node">
<title>1</title>
<path fill="none" stroke="#d85656" stroke-width="2" d="M103.5,-180C103.5,-180 41.5,-180 41.5,-180 35.5,-180 29.5,-174 29.5,-168 29.5,-168 29.5,-156 29.5,-156 29.5,-150 35.5,-144 41.5,-144 41.5,-144 103.5,-144 103.5,-144 109.5,-144 115.5,-150 115.5,-156 115.5,-156 115.5,-168 115.5,-168 115.5,-174 109.5,-180 103.5,-180"/>
<text text-anchor="middle" x="72.5" y="-159.5" font-family="sans" font-size="10.00">samtools_sort</text>
</g>
<!-- 1&#45;&gt;0 -->
<g id="edge1" class="edge">
<title>1&#45;&gt;0</title>
<path fill="none" stroke="grey" stroke-width="2" d="M65.02,-143.7C61.03,-133.52 56.53,-120.27 54.5,-108 51.89,-92.21 51.89,-87.79 54.5,-72 55.94,-63.28 58.63,-54.06 61.5,-45.8"/>
<polygon fill="grey" stroke="grey" stroke-width="2" points="64.83,-46.89 65.02,-36.3 58.27,-44.46 64.83,-46.89"/>
</g>
<!-- 3 -->
<g id="node4" class="node">
<title>3</title>
<path fill="none" stroke="#d8ac56" stroke-width="2" d="M145.5,-108C145.5,-108 75.5,-108 75.5,-108 69.5,-108 63.5,-102 63.5,-96 63.5,-96 63.5,-84 63.5,-84 63.5,-78 69.5,-72 75.5,-72 75.5,-72 145.5,-72 145.5,-72 151.5,-72 157.5,-78 157.5,-84 157.5,-84 157.5,-96 157.5,-96 157.5,-102 151.5,-108 145.5,-108"/>
<text text-anchor="middle" x="110.5" y="-87.5" font-family="sans" font-size="10.00">samtools_index</text>
</g>
<!-- 1&#45;&gt;3 -->
<g id="edge4" class="edge">
<title>1&#45;&gt;3</title>
<path fill="none" stroke="grey" stroke-width="2" d="M81.89,-143.7C86.26,-135.64 91.56,-125.89 96.4,-116.98"/>
<polygon fill="grey" stroke="grey" stroke-width="2" points="99.52,-118.56 101.21,-108.1 93.37,-115.22 99.52,-118.56"/>
</g>
<!-- 2 -->
<g id="node3" class="node">
<title>2</title>
<path fill="none" stroke="#59d856" stroke-width="2" d="M109.5,-252C109.5,-252 35.5,-252 35.5,-252 29.5,-252 23.5,-246 23.5,-240 23.5,-240 23.5,-228 23.5,-228 23.5,-222 29.5,-216 35.5,-216 35.5,-216 109.5,-216 109.5,-216 115.5,-216 121.5,-222 121.5,-228 121.5,-228 121.5,-240 121.5,-240 121.5,-246 115.5,-252 109.5,-252"/>
<text text-anchor="middle" x="72.5" y="-237" font-family="sans" font-size="10.00">bwa_map</text>
<text text-anchor="middle" x="72.5" y="-226" font-family="sans" font-size="10.00">sample: illumina</text>
</g>
<!-- 2&#45;&gt;1 -->
<g id="edge3" class="edge">
<title>2&#45;&gt;1</title>
<path fill="none" stroke="grey" stroke-width="2" d="M72.5,-215.7C72.5,-207.98 72.5,-198.71 72.5,-190.11"/>
<polygon fill="grey" stroke="grey" stroke-width="2" points="76,-190.1 72.5,-180.1 69,-190.1 76,-190.1"/>
</g>
<!-- 3&#45;&gt;0 -->
<g id="edge2" class="edge">
<title>3&#45;&gt;0</title>
<path fill="none" stroke="grey" stroke-width="2" d="M101.11,-71.7C96.74,-63.64 91.44,-53.89 86.6,-44.98"/>
<polygon fill="grey" stroke="grey" stroke-width="2" points="89.63,-43.22 81.79,-36.1 83.48,-46.56 89.63,-43.22"/>
</g>
</g>
</svg>
