<?xml version="1.0" encoding="UTF-8" standalone="no"?>
<!DOCTYPE svg PUBLIC "-//W3C//DTD SVG 1.1//EN"
 "http://www.w3.org/Graphics/SVG/1.1/DTD/svg11.dtd">
<!-- Generated by graphviz version 2.43.0 (0)
 -->
<!-- Title: snakemake_dag Pages: 1 -->
<svg width="352pt" height="404pt"
 viewBox="0.00 0.00 351.50 404.00" xmlns="http://www.w3.org/2000/svg" xmlns:xlink="http://www.w3.org/1999/xlink">
<g id="graph0" class="graph" transform="scale(1 1) rotate(0) translate(4 400)">
<title>snakemake_dag</title>
<polygon fill="white" stroke="transparent" points="-4,4 -4,-400 347.5,-400 347.5,4 -4,4"/>
<!-- 0 -->
<g id="node1" class="node">
<title>0</title>
<path fill="none" stroke="#569ad8" stroke-width="2" d="M166,-36C166,-36 136,-36 136,-36 130,-36 124,-30 124,-24 124,-24 124,-12 124,-12 124,-6 130,0 136,0 136,0 166,0 166,0 172,0 178,-6 178,-12 178,-12 178,-24 178,-24 178,-30 172,-36 166,-36"/>
<text text-anchor="middle" x="151" y="-15.5" font-family="sans" font-size="10.00">all</text>
</g>
<!-- 1 -->
<g id="node2" class="node">
<title>1</title>
<path fill="none" stroke="#d89556" stroke-width="2" d="M92,-108C92,-108 12,-108 12,-108 6,-108 0,-102 0,-96 0,-96 0,-84 0,-84 0,-78 6,-72 12,-72 12,-72 92,-72 92,-72 98,-72 104,-78 104,-84 104,-84 104,-96 104,-96 104,-102 98,-108 92,-108"/>
<text text-anchor="middle" x="52" y="-93" font-family="sans" font-size="10.00">fastqc</text>
<text text-anchor="middle" x="52" y="-82" font-family="sans" font-size="10.00">sample: sample 1</text>
</g>
<!-- 1&#45;&gt;0 -->
<g id="edge1" class="edge">
<title>1&#45;&gt;0</title>
<path fill="none" stroke="grey" stroke-width="2" d="M76.22,-71.88C88.92,-62.89 104.66,-51.76 118.42,-42.03"/>
<polygon fill="grey" stroke="grey" stroke-width="2" points="120.54,-44.82 126.69,-36.19 116.5,-39.11 120.54,-44.82"/>
</g>
<!-- 2 -->
<g id="node3" class="node">
<title>2</title>
<path fill="none" stroke="#d85656" stroke-width="2" d="M189,-324C189,-324 149,-324 149,-324 143,-324 137,-318 137,-312 137,-312 137,-300 137,-300 137,-294 143,-288 149,-288 149,-288 189,-288 189,-288 195,-288 201,-294 201,-300 201,-300 201,-312 201,-312 201,-318 195,-324 189,-324"/>
<text text-anchor="middle" x="169" y="-303.5" font-family="sans" font-size="10.00">bwa_map</text>
</g>
<!-- 2&#45;&gt;0 -->
<g id="edge2" class="edge">
<title>2&#45;&gt;0</title>
<path fill="none" stroke="grey" stroke-width="2" d="M163.43,-287.52C160.4,-277.28 156.9,-264.03 155,-252 143.35,-178.32 146.4,-89.91 149.03,-46.21"/>
<polygon fill="grey" stroke="grey" stroke-width="2" points="152.53,-46.3 149.68,-36.1 145.54,-45.85 152.53,-46.3"/>
</g>
<!-- 5 -->
<g id="node6" class="node">
<title>5</title>
<path fill="none" stroke="#56d8d8" stroke-width="2" d="M238,-252C238,-252 176,-252 176,-252 170,-252 164,-246 164,-240 164,-240 164,-228 164,-228 164,-222 170,-216 176,-216 176,-216 238,-216 238,-216 244,-216 250,-222 250,-228 250,-228 250,-240 250,-240 250,-246 244,-252 238,-252"/>
<text text-anchor="middle" x="207" y="-231.5" font-family="sans" font-size="10.00">samtools_sort</text>
</g>
<!-- 2&#45;&gt;5 -->
<g id="edge7" class="edge">
<title>2&#45;&gt;5</title>
<path fill="none" stroke="grey" stroke-width="2" d="M178.39,-287.7C182.76,-279.64 188.06,-269.89 192.9,-260.98"/>
<polygon fill="grey" stroke="grey" stroke-width="2" points="196.02,-262.56 197.71,-252.1 189.87,-259.22 196.02,-262.56"/>
</g>
<!-- 3 -->
<g id="node4" class="node">
<title>3</title>
<path fill="none" stroke="#56d89a" stroke-width="2" d="M209,-396C209,-396 129,-396 129,-396 123,-396 117,-390 117,-384 117,-384 117,-372 117,-372 117,-366 123,-360 129,-360 129,-360 209,-360 209,-360 215,-360 221,-366 221,-372 221,-372 221,-384 221,-384 221,-390 215,-396 209,-396"/>
<text text-anchor="middle" x="169" y="-381" font-family="sans" font-size="10.00">trim_galore</text>
<text text-anchor="middle" x="169" y="-370" font-family="sans" font-size="10.00">sample: sample 1</text>
</g>
<!-- 3&#45;&gt;2 -->
<g id="edge5" class="edge">
<title>3&#45;&gt;2</title>
<path fill="none" stroke="grey" stroke-width="2" d="M169,-359.7C169,-351.98 169,-342.71 169,-334.11"/>
<polygon fill="grey" stroke="grey" stroke-width="2" points="172.5,-334.1 169,-324.1 165.5,-334.1 172.5,-334.1"/>
</g>
<!-- 4 -->
<g id="node5" class="node">
<title>4</title>
<path fill="none" stroke="#97d856" stroke-width="2" d="M242,-180C242,-180 172,-180 172,-180 166,-180 160,-174 160,-168 160,-168 160,-156 160,-156 160,-150 166,-144 172,-144 172,-144 242,-144 242,-144 248,-144 254,-150 254,-156 254,-156 254,-168 254,-168 254,-174 248,-180 242,-180"/>
<text text-anchor="middle" x="207" y="-159.5" font-family="sans" font-size="10.00">samtools_index</text>
</g>
<!-- 4&#45;&gt;0 -->
<g id="edge3" class="edge">
<title>4&#45;&gt;0</title>
<path fill="none" stroke="grey" stroke-width="2" d="M200.25,-143.87C190.62,-119.46 172.86,-74.43 161.5,-45.64"/>
<polygon fill="grey" stroke="grey" stroke-width="2" points="164.7,-44.21 157.78,-36.19 158.19,-46.78 164.7,-44.21"/>
</g>
<!-- 6 -->
<g id="node7" class="node">
<title>6</title>
<path fill="none" stroke="#d6d856" stroke-width="2" d="M331.5,-108C331.5,-108 210.5,-108 210.5,-108 204.5,-108 198.5,-102 198.5,-96 198.5,-96 198.5,-84 198.5,-84 198.5,-78 204.5,-72 210.5,-72 210.5,-72 331.5,-72 331.5,-72 337.5,-72 343.5,-78 343.5,-84 343.5,-84 343.5,-96 343.5,-96 343.5,-102 337.5,-108 331.5,-108"/>
<text text-anchor="middle" x="271" y="-87.5" font-family="sans" font-size="10.00">gatk_mutect2_tumor_only</text>
</g>
<!-- 4&#45;&gt;6 -->
<g id="edge9" class="edge">
<title>4&#45;&gt;6</title>
<path fill="none" stroke="grey" stroke-width="2" d="M222.82,-143.7C230.57,-135.22 240.04,-124.86 248.52,-115.58"/>
<polygon fill="grey" stroke="grey" stroke-width="2" points="251.2,-117.85 255.36,-108.1 246.03,-113.12 251.2,-117.85"/>
</g>
<!-- 5&#45;&gt;4 -->
<g id="edge6" class="edge">
<title>5&#45;&gt;4</title>
<path fill="none" stroke="grey" stroke-width="2" d="M207,-215.7C207,-207.98 207,-198.71 207,-190.11"/>
<polygon fill="grey" stroke="grey" stroke-width="2" points="210.5,-190.1 207,-180.1 203.5,-190.1 210.5,-190.1"/>
</g>
<!-- 5&#45;&gt;6 -->
<g id="edge8" class="edge">
<title>5&#45;&gt;6</title>
<path fill="none" stroke="grey" stroke-width="2" d="M232.27,-215.79C243.68,-206.59 256.11,-194.21 263,-180 272.33,-160.74 273.93,-136.4 273.42,-118.04"/>
<polygon fill="grey" stroke="grey" stroke-width="2" points="276.91,-117.82 272.92,-108.01 269.92,-118.17 276.91,-117.82"/>
</g>
<!-- 6&#45;&gt;0 -->
<g id="edge4" class="edge">
<title>6&#45;&gt;0</title>
<path fill="none" stroke="grey" stroke-width="2" d="M241.64,-71.88C225.1,-62.23 204.31,-50.1 186.81,-39.89"/>
<polygon fill="grey" stroke="grey" stroke-width="2" points="188.4,-36.77 178,-34.75 184.87,-42.81 188.4,-36.77"/>
</g>
</g>
</svg>
