<?xml version="1.0" encoding="UTF-8" standalone="no"?>
<!DOCTYPE svg PUBLIC "-//W3C//DTD SVG 1.1//EN"
 "http://www.w3.org/Graphics/SVG/1.1/DTD/svg11.dtd">
<!-- Generated by graphviz version 2.43.0 (0)
 -->
<!-- Title: snakemake_dag Pages: 1 -->
<svg width="493pt" height="332pt"
 viewBox="0.00 0.00 493.00 332.00" xmlns="http://www.w3.org/2000/svg" xmlns:xlink="http://www.w3.org/1999/xlink">
<g id="graph0" class="graph" transform="scale(1 1) rotate(0) translate(4 328)">
<title>snakemake_dag</title>
<polygon fill="white" stroke="transparent" points="-4,4 -4,-328 489,-328 489,4 -4,4"/>
<!-- 0 -->
<g id="node1" class="node">
<title>0</title>
<path fill="none" stroke="#d8a456" stroke-width="2" d="M307.5,-36C307.5,-36 277.5,-36 277.5,-36 271.5,-36 265.5,-30 265.5,-24 265.5,-24 265.5,-12 265.5,-12 265.5,-6 271.5,0 277.5,0 277.5,0 307.5,0 307.5,0 313.5,0 319.5,-6 319.5,-12 319.5,-12 319.5,-24 319.5,-24 319.5,-30 313.5,-36 307.5,-36"/>
<text text-anchor="middle" x="292.5" y="-15.5" font-family="sans" font-size="10.00">all</text>
</g>
<!-- 1 -->
<g id="node2" class="node">
<title>1</title>
<path fill="none" stroke="#c6d856" stroke-width="2" d="M233,-108C233,-108 12,-108 12,-108 6,-108 0,-102 0,-96 0,-96 0,-84 0,-84 0,-78 6,-72 12,-72 12,-72 233,-72 233,-72 239,-72 245,-78 245,-84 245,-84 245,-96 245,-96 245,-102 239,-108 233,-108"/>
<text text-anchor="middle" x="122.5" y="-93" font-family="sans" font-size="10.00">fastqc</text>
<text text-anchor="middle" x="122.5" y="-82" font-family="sans" font-size="10.00">sample: ../data/fastq_files/IonXpress_040.fastq</text>
</g>
<!-- 1&#45;&gt;0 -->
<g id="edge1" class="edge">
<title>1&#45;&gt;0</title>
<path fill="none" stroke="grey" stroke-width="2" d="M164.09,-71.88C192.19,-60.3 228.95,-45.17 255.93,-34.06"/>
<polygon fill="grey" stroke="grey" stroke-width="2" points="257.48,-37.2 265.39,-30.16 254.82,-30.73 257.48,-37.2"/>
</g>
<!-- 2 -->
<g id="node3" class="node">
<title>2</title>
<path fill="none" stroke="#56d8c9" stroke-width="2" d="M421,-324C421,-324 200,-324 200,-324 194,-324 188,-318 188,-312 188,-312 188,-300 188,-300 188,-294 194,-288 200,-288 200,-288 421,-288 421,-288 427,-288 433,-294 433,-300 433,-300 433,-312 433,-312 433,-318 427,-324 421,-324"/>
<text text-anchor="middle" x="310.5" y="-309" font-family="sans" font-size="10.00">bwa_map</text>
<text text-anchor="middle" x="310.5" y="-298" font-family="sans" font-size="10.00">sample: ../data/fastq_files/IonXpress_040.fastq</text>
</g>
<!-- 2&#45;&gt;0 -->
<g id="edge2" class="edge">
<title>2&#45;&gt;0</title>
<path fill="none" stroke="grey" stroke-width="2" d="M304.93,-287.52C301.9,-277.28 298.4,-264.03 296.5,-252 284.85,-178.32 287.9,-89.91 290.53,-46.21"/>
<polygon fill="grey" stroke="grey" stroke-width="2" points="294.03,-46.3 291.18,-36.1 287.04,-45.85 294.03,-46.3"/>
</g>
<!-- 4 -->
<g id="node5" class="node">
<title>4</title>
<path fill="none" stroke="#56d87b" stroke-width="2" d="M379.5,-252C379.5,-252 317.5,-252 317.5,-252 311.5,-252 305.5,-246 305.5,-240 305.5,-240 305.5,-228 305.5,-228 305.5,-222 311.5,-216 317.5,-216 317.5,-216 379.5,-216 379.5,-216 385.5,-216 391.5,-222 391.5,-228 391.5,-228 391.5,-240 391.5,-240 391.5,-246 385.5,-252 379.5,-252"/>
<text text-anchor="middle" x="348.5" y="-231.5" font-family="sans" font-size="10.00">samtools_sort</text>
</g>
<!-- 2&#45;&gt;4 -->
<g id="edge6" class="edge">
<title>2&#45;&gt;4</title>
<path fill="none" stroke="grey" stroke-width="2" d="M319.89,-287.7C324.26,-279.64 329.56,-269.89 334.4,-260.98"/>
<polygon fill="grey" stroke="grey" stroke-width="2" points="337.52,-262.56 339.21,-252.1 331.37,-259.22 337.52,-262.56"/>
</g>
<!-- 3 -->
<g id="node4" class="node">
<title>3</title>
<path fill="none" stroke="#d85656" stroke-width="2" d="M383.5,-180C383.5,-180 313.5,-180 313.5,-180 307.5,-180 301.5,-174 301.5,-168 301.5,-168 301.5,-156 301.5,-156 301.5,-150 307.5,-144 313.5,-144 313.5,-144 383.5,-144 383.5,-144 389.5,-144 395.5,-150 395.5,-156 395.5,-156 395.5,-168 395.5,-168 395.5,-174 389.5,-180 383.5,-180"/>
<text text-anchor="middle" x="348.5" y="-159.5" font-family="sans" font-size="10.00">samtools_index</text>
</g>
<!-- 3&#45;&gt;0 -->
<g id="edge3" class="edge">
<title>3&#45;&gt;0</title>
<path fill="none" stroke="grey" stroke-width="2" d="M341.75,-143.87C332.12,-119.46 314.36,-74.43 303,-45.64"/>
<polygon fill="grey" stroke="grey" stroke-width="2" points="306.2,-44.21 299.28,-36.19 299.69,-46.78 306.2,-44.21"/>
</g>
<!-- 5 -->
<g id="node6" class="node">
<title>5</title>
<path fill="none" stroke="#78d856" stroke-width="2" d="M473,-108C473,-108 352,-108 352,-108 346,-108 340,-102 340,-96 340,-96 340,-84 340,-84 340,-78 346,-72 352,-72 352,-72 473,-72 473,-72 479,-72 485,-78 485,-84 485,-84 485,-96 485,-96 485,-102 479,-108 473,-108"/>
<text text-anchor="middle" x="412.5" y="-87.5" font-family="sans" font-size="10.00">gatk_mutect2_tumor_only</text>
</g>
<!-- 3&#45;&gt;5 -->
<g id="edge8" class="edge">
<title>3&#45;&gt;5</title>
<path fill="none" stroke="grey" stroke-width="2" d="M364.32,-143.7C372.07,-135.22 381.54,-124.86 390.02,-115.58"/>
<polygon fill="grey" stroke="grey" stroke-width="2" points="392.7,-117.85 396.86,-108.1 387.53,-113.12 392.7,-117.85"/>
</g>
<!-- 4&#45;&gt;3 -->
<g id="edge5" class="edge">
<title>4&#45;&gt;3</title>
<path fill="none" stroke="grey" stroke-width="2" d="M348.5,-215.7C348.5,-207.98 348.5,-198.71 348.5,-190.11"/>
<polygon fill="grey" stroke="grey" stroke-width="2" points="352,-190.1 348.5,-180.1 345,-190.1 352,-190.1"/>
</g>
<!-- 4&#45;&gt;5 -->
<g id="edge7" class="edge">
<title>4&#45;&gt;5</title>
<path fill="none" stroke="grey" stroke-width="2" d="M373.77,-215.79C385.18,-206.59 397.61,-194.21 404.5,-180 413.83,-160.74 415.43,-136.4 414.92,-118.04"/>
<polygon fill="grey" stroke="grey" stroke-width="2" points="418.41,-117.82 414.42,-108.01 411.42,-118.17 418.41,-117.82"/>
</g>
<!-- 5&#45;&gt;0 -->
<g id="edge4" class="edge">
<title>5&#45;&gt;0</title>
<path fill="none" stroke="grey" stroke-width="2" d="M383.14,-71.88C366.6,-62.23 345.81,-50.1 328.31,-39.89"/>
<polygon fill="grey" stroke="grey" stroke-width="2" points="329.9,-36.77 319.5,-34.75 326.37,-42.81 329.9,-36.77"/>
</g>
</g>
</svg>
