<?xml version="1.0" encoding="UTF-8" standalone="no"?>
<!DOCTYPE svg PUBLIC "-//W3C//DTD SVG 1.1//EN"
 "http://www.w3.org/Graphics/SVG/1.1/DTD/svg11.dtd">
<!-- Generated by graphviz version 2.43.0 (0)
 -->
<!-- Title: dag Pages: 1 -->
<svg width="591pt" height="478pt"
 viewBox="0.00 0.00 590.60 477.80" xmlns="http://www.w3.org/2000/svg" xmlns:xlink="http://www.w3.org/1999/xlink">
<g id="graph0" class="graph" transform="scale(1 1) rotate(0) translate(4 473.8)">
<title>dag</title>
<polygon fill="white" stroke="transparent" points="-4,4 -4,-473.8 586.6,-473.8 586.6,4 -4,4"/>
<!-- v0 -->
<g id="node1" class="node">
<title>v0</title>
<ellipse fill="black" stroke="black" cx="163.6" cy="-451.2" rx="3.6" ry="3.6"/>
<text text-anchor="middle" x="80" y="-458.6" font-family="Times,serif" font-size="14.00">Channel.fromFilePairs</text>
</g>
<!-- v1 -->
<g id="node2" class="node">
<title>v1</title>
<ellipse fill="none" stroke="black" cx="90.6" cy="-378.6" rx="48.99" ry="18"/>
<text text-anchor="middle" x="90.6" y="-374.9" font-family="Times,serif" font-size="14.00">FASTQC</text>
</g>
<!-- v0&#45;&gt;v1 -->
<g id="edge1" class="edge">
<title>v0&#45;&gt;v1</title>
<path fill="none" stroke="black" d="M160.54,-448.82C154.27,-445.89 139.71,-438.59 129.6,-429.6 121.45,-422.36 113.78,-413.24 107.42,-404.78"/>
<polygon fill="black" stroke="black" points="110.23,-402.69 101.54,-396.63 104.56,-406.79 110.23,-402.69"/>
<text text-anchor="middle" x="166.6" y="-418.4" font-family="Times,serif" font-size="14.00">raw_reads</text>
</g>
<!-- v4 -->
<g id="node5" class="node">
<title>v4</title>
<ellipse fill="none" stroke="black" cx="238.6" cy="-378.6" rx="81.49" ry="18"/>
<text text-anchor="middle" x="238.6" y="-374.9" font-family="Times,serif" font-size="14.00">TRIM_GALORE</text>
</g>
<!-- v0&#45;&gt;v4 -->
<g id="edge4" class="edge">
<title>v0&#45;&gt;v4</title>
<path fill="none" stroke="black" d="M166.82,-449.15C174.04,-446.67 191.83,-439.88 203.6,-429.6 211.42,-422.77 218.38,-413.85 223.99,-405.43"/>
<polygon fill="black" stroke="black" points="226.97,-407.28 229.34,-396.95 221.04,-403.55 226.97,-407.28"/>
<text text-anchor="middle" x="254.6" y="-418.4" font-family="Times,serif" font-size="14.00">raw_reads</text>
</g>
<!-- v3 -->
<g id="node3" class="node">
<title>v3</title>
<ellipse fill="black" stroke="black" cx="78.6" cy="-291.6" rx="1.8" ry="1.8"/>
</g>
<!-- v1&#45;&gt;v3 -->
<g id="edge2" class="edge">
<title>v1&#45;&gt;v3</title>
<path fill="none" stroke="black" d="M88.17,-360.4C85.79,-343.52 82.22,-318.26 80.18,-303.82"/>
<polygon fill="black" stroke="black" points="83.62,-303.09 78.75,-293.68 76.69,-304.07 83.62,-303.09"/>
</g>
<!-- v2 -->
<g id="node4" class="node">
<title>v2</title>
<ellipse fill="black" stroke="black" cx="103.6" cy="-291.6" rx="1.8" ry="1.8"/>
</g>
<!-- v1&#45;&gt;v2 -->
<g id="edge3" class="edge">
<title>v1&#45;&gt;v2</title>
<path fill="none" stroke="black" d="M93.23,-360.4C95.81,-343.52 99.68,-318.26 101.88,-303.82"/>
<polygon fill="black" stroke="black" points="105.38,-304.1 103.43,-293.68 98.46,-303.04 105.38,-304.1"/>
</g>
<!-- v6 -->
<g id="node6" class="node">
<title>v6</title>
<ellipse fill="none" stroke="black" cx="307.6" cy="-291.6" rx="67.69" ry="18"/>
<text text-anchor="middle" x="307.6" y="-287.9" font-family="Times,serif" font-size="14.00">BWA_ALIGN</text>
</g>
<!-- v4&#45;&gt;v6 -->
<g id="edge5" class="edge">
<title>v4&#45;&gt;v6</title>
<path fill="none" stroke="black" d="M252.23,-360.81C262.34,-348.35 276.29,-331.17 287.65,-317.17"/>
<polygon fill="black" stroke="black" points="290.41,-319.33 294,-309.36 284.98,-314.92 290.41,-319.33"/>
</g>
<!-- v7 -->
<g id="node8" class="node">
<title>v7</title>
<ellipse fill="none" stroke="black" cx="307.6" cy="-218.6" rx="114.28" ry="18"/>
<text text-anchor="middle" x="307.6" y="-214.9" font-family="Times,serif" font-size="14.00">SAMTOOLS_SORTING</text>
</g>
<!-- v6&#45;&gt;v7 -->
<g id="edge7" class="edge">
<title>v6&#45;&gt;v7</title>
<path fill="none" stroke="black" d="M307.6,-273.41C307.6,-265.39 307.6,-255.65 307.6,-246.67"/>
<polygon fill="black" stroke="black" points="311.1,-246.63 307.6,-236.63 304.1,-246.63 311.1,-246.63"/>
</g>
<!-- v5 -->
<g id="node7" class="node">
<title>v5</title>
<ellipse fill="black" stroke="black" cx="341.6" cy="-378.6" rx="3.6" ry="3.6"/>
</g>
<!-- v5&#45;&gt;v6 -->
<g id="edge6" class="edge">
<title>v5&#45;&gt;v6</title>
<path fill="none" stroke="black" d="M340.47,-374.77C337.04,-366.21 326.51,-339.88 318.28,-319.3"/>
<polygon fill="black" stroke="black" points="321.43,-317.75 314.47,-309.77 314.93,-320.35 321.43,-317.75"/>
<text text-anchor="middle" x="365.6" y="-331.4" font-family="Times,serif" font-size="14.00">bwa_index</text>
</g>
<!-- v8 -->
<g id="node9" class="node">
<title>v8</title>
<ellipse fill="none" stroke="black" cx="233.6" cy="-145.6" rx="120.48" ry="18"/>
<text text-anchor="middle" x="233.6" y="-141.9" font-family="Times,serif" font-size="14.00">SAMTOOLS_INDEXING</text>
</g>
<!-- v7&#45;&gt;v8 -->
<g id="edge8" class="edge">
<title>v7&#45;&gt;v8</title>
<path fill="none" stroke="black" d="M290.06,-200.77C280.64,-191.73 268.86,-180.43 258.5,-170.49"/>
<polygon fill="black" stroke="black" points="260.91,-167.95 251.27,-163.55 256.06,-173 260.91,-167.95"/>
</g>
<!-- v12 -->
<g id="node10" class="node">
<title>v12</title>
<ellipse fill="none" stroke="black" cx="414.6" cy="-58.6" rx="89.08" ry="18"/>
<text text-anchor="middle" x="414.6" y="-54.9" font-family="Times,serif" font-size="14.00">GATK_MUTECT2</text>
</g>
<!-- v7&#45;&gt;v12 -->
<g id="edge10" class="edge">
<title>v7&#45;&gt;v12</title>
<path fill="none" stroke="black" d="M327.8,-200.75C338.99,-190.74 352.6,-177.34 362.6,-163.6 380.32,-139.25 395.04,-107.97 404.25,-86.1"/>
<polygon fill="black" stroke="black" points="407.52,-87.36 408.08,-76.78 401.04,-84.7 407.52,-87.36"/>
</g>
<!-- v8&#45;&gt;v12 -->
<g id="edge9" class="edge">
<title>v8&#45;&gt;v12</title>
<path fill="none" stroke="black" d="M268.5,-128.21C297.92,-114.4 340.13,-94.57 371.63,-79.78"/>
<polygon fill="black" stroke="black" points="373.47,-82.78 381.03,-75.36 370.49,-76.45 373.47,-82.78"/>
</g>
<!-- v13 -->
<g id="node14" class="node">
<title>v13</title>
<ellipse fill="black" stroke="black" cx="414.6" cy="-1.8" rx="1.8" ry="1.8"/>
</g>
<!-- v12&#45;&gt;v13 -->
<g id="edge14" class="edge">
<title>v12&#45;&gt;v13</title>
<path fill="none" stroke="black" d="M414.6,-40.56C414.6,-31.87 414.6,-21.56 414.6,-13.9"/>
<polygon fill="black" stroke="black" points="418.1,-13.76 414.6,-3.76 411.1,-13.76 418.1,-13.76"/>
</g>
<!-- v9 -->
<g id="node11" class="node">
<title>v9</title>
<ellipse fill="black" stroke="black" cx="414.6" cy="-145.6" rx="3.6" ry="3.6"/>
</g>
<!-- v9&#45;&gt;v12 -->
<g id="edge11" class="edge">
<title>v9&#45;&gt;v12</title>
<path fill="none" stroke="black" d="M414.6,-141.77C414.6,-133.28 414.6,-107.35 414.6,-86.87"/>
<polygon fill="black" stroke="black" points="418.1,-86.77 414.6,-76.77 411.1,-86.77 418.1,-86.77"/>
<text text-anchor="middle" x="452.6" y="-98.4" font-family="Times,serif" font-size="14.00">bwa_index</text>
</g>
<!-- v10 -->
<g id="node12" class="node">
<title>v10</title>
<ellipse fill="black" stroke="black" cx="513.6" cy="-145.6" rx="3.6" ry="3.6"/>
</g>
<!-- v10&#45;&gt;v12 -->
<g id="edge12" class="edge">
<title>v10&#45;&gt;v12</title>
<path fill="none" stroke="black" d="M513.13,-141.94C511.54,-133.81 505.73,-108.9 491.6,-94.6 485.38,-88.3 477.81,-83.03 469.88,-78.64"/>
<polygon fill="black" stroke="black" points="471.33,-75.46 460.83,-74.07 468.18,-81.7 471.33,-75.46"/>
<text text-anchor="middle" x="520.6" y="-98.4" font-family="Times,serif" font-size="14.00">fasta</text>
</g>
<!-- v11 -->
<g id="node13" class="node">
<title>v11</title>
<ellipse fill="black" stroke="black" cx="572.6" cy="-145.6" rx="3.6" ry="3.6"/>
</g>
<!-- v11&#45;&gt;v12 -->
<g id="edge13" class="edge">
<title>v11&#45;&gt;v12</title>
<path fill="none" stroke="black" d="M571.76,-141.83C569.05,-133.35 559.7,-107.56 542.6,-94.6 529.09,-84.36 512.78,-77.12 496.39,-71.99"/>
<polygon fill="black" stroke="black" points="497.33,-68.62 486.75,-69.21 495.39,-75.35 497.33,-68.62"/>
<text text-anchor="middle" x="568.6" y="-98.4" font-family="Times,serif" font-size="14.00">dict</text>
</g>
</g>
</svg>
